<?xml version="1.0" encoding="utf-8"?>
<!-- Generator: Adobe Illustrator 19.1.0, SVG Export Plug-In . SVG Version: 6.00 Build 0)  -->
<svg version="1.1" id="Layer_1" xmlns="http://www.w3.org/2000/svg" xmlns:xlink="http://www.w3.org/1999/xlink" x="0px" y="0px"
	 viewBox="-82.8 0 290.3 512" style="enable-background:new -82.8 0 290.3 512;" xml:space="preserve">
<g>
	<path d="M174.7,189.1c-5.5-5.9-11.8-11-18.7-15.5l-67,67c7.4,3.5,14.1,8.6,19.3,15.9c6.8,9.6,11.1,22.9,11.1,40.6v215l87.9-87.7
		V284.2C207.3,245.3,196.2,212,174.7,189.1z"/>
	<path d="M89.6,155.7c-6.1,0-12.2,0.6-18.2,1.6L-82.8,311.5v37.1L108.8,157C102.7,156.2,96.3,155.7,89.6,155.7z"/>
	<polygon points="5.1,159.7 5.1,0.7 -82.8,88.4 -82.8,159.7 -31.9,159.7 -82.8,210.6 -82.8,247.7 5.1,159.8 	"/>
	<polygon points="-44.4,512 5.1,462.5 5.1,425.3 -81.5,512 	"/>
	<polygon points="-82.8,449.5 5.1,361.6 5.1,324.4 -82.8,412.3 	"/>
</g>
</svg>
