<?xml version="1.0" encoding="utf-8"?>
<!-- Generator: Adobe Illustrator 18.1.1, SVG Export Plug-In . SVG Version: 6.00 Build 0)  -->
<svg version="1.1" id="Layer_1" xmlns="http://www.w3.org/2000/svg" xmlns:xlink="http://www.w3.org/1999/xlink" x="0px" y="0px"
	 viewBox="-164 42.3 512 512" enable-background="new -164 42.3 512 512" xml:space="preserve">
<g id="svgGrid" display="none">
	<line display="inline" fill="none" stroke="#B35047" x1="-132" y1="42.3" x2="-132" y2="554.3"/>
	<line display="inline" fill="none" stroke="#B35047" x1="-100" y1="42.3" x2="-100" y2="554.3"/>
	<line display="inline" fill="none" stroke="#B35047" x1="-68" y1="42.3" x2="-68" y2="554.3"/>
	<line display="inline" fill="none" stroke="#B35047" x1="-36" y1="42.3" x2="-36" y2="554.3"/>
	<line display="inline" fill="none" stroke="#B35047" x1="-4" y1="42.3" x2="-4" y2="554.3"/>
	<line display="inline" fill="none" stroke="#B35047" x1="28" y1="42.3" x2="28" y2="554.3"/>
	<line display="inline" fill="none" stroke="#B35047" x1="60" y1="42.3" x2="60" y2="554.3"/>
	<line display="inline" fill="none" stroke="#B35047" x1="92" y1="42.3" x2="92" y2="554.3"/>
	<line display="inline" fill="none" stroke="#B35047" x1="124" y1="42.3" x2="124" y2="554.3"/>
	<line display="inline" fill="none" stroke="#B35047" x1="156" y1="42.3" x2="156" y2="554.3"/>
	<line display="inline" fill="none" stroke="#B35047" x1="188" y1="42.3" x2="188" y2="554.3"/>
	<line display="inline" fill="none" stroke="#B35047" x1="220" y1="42.3" x2="220" y2="554.3"/>
	<line display="inline" fill="none" stroke="#B35047" x1="252" y1="42.3" x2="252" y2="554.3"/>
	<line display="inline" fill="none" stroke="#B35047" x1="284" y1="42.3" x2="284" y2="554.3"/>
	<line display="inline" fill="none" stroke="#B35047" x1="316" y1="42.3" x2="316" y2="554.3"/>
	<line display="inline" fill="none" stroke="#B35047" x1="-164" y1="74.3" x2="348" y2="74.3"/>
	<line display="inline" fill="none" stroke="#B35047" x1="-164" y1="106.3" x2="348" y2="106.3"/>
	<line display="inline" fill="none" stroke="#B35047" x1="-164" y1="138.3" x2="348" y2="138.3"/>
	<line display="inline" fill="none" stroke="#B35047" x1="-164" y1="170.3" x2="348" y2="170.3"/>
	<line display="inline" fill="none" stroke="#B35047" x1="-164" y1="202.3" x2="348" y2="202.3"/>
	<line display="inline" fill="none" stroke="#B35047" x1="-164" y1="234.3" x2="348" y2="234.3"/>
	<line display="inline" fill="none" stroke="#B35047" x1="-164" y1="266.3" x2="348" y2="266.3"/>
	<line display="inline" fill="none" stroke="#B35047" x1="-164" y1="298.3" x2="348" y2="298.3"/>
	<line display="inline" fill="none" stroke="#B35047" x1="-164" y1="330.3" x2="348" y2="330.3"/>
	<line display="inline" fill="none" stroke="#B35047" x1="-164" y1="362.3" x2="348" y2="362.3"/>
	<line display="inline" fill="none" stroke="#B35047" x1="-164" y1="394.3" x2="348" y2="394.3"/>
	<line display="inline" fill="none" stroke="#B35047" x1="-164" y1="426.3" x2="348" y2="426.3"/>
	<line display="inline" fill="none" stroke="#B35047" x1="-164" y1="458.3" x2="348" y2="458.3"/>
	<line display="inline" fill="none" stroke="#B35047" x1="-164" y1="490.3" x2="348" y2="490.3"/>
	<line display="inline" fill="none" stroke="#B35047" x1="-164" y1="522.3" x2="348" y2="522.3"/>
	<rect x="-164" y="42.3" display="inline" fill="none" stroke="#B35047" width="512" height="512"/>
</g>
<path d="M348,139.5c-18.8,8.4-39.1,14-60.3,16.5c21.7-13,38.3-33.6,46.2-58.1c-20.3,12-42.8,20.8-66.7,25.5
	C248,103,220.7,90.2,190.5,90.2c-58,0-105,47-105,105c0,8.2,0.9,16.2,2.7,23.9C0.9,214.8-76.5,173-128.4,109.5
	c-9,15.5-14.2,33.6-14.2,52.8c0,36.4,18.5,68.6,46.7,87.4c-17.2-0.5-33.4-5.3-47.6-13.1c0,0.4,0,0.9,0,1.3
	c0,50.9,36.2,93.3,84.3,103c-8.8,2.4-18.1,3.7-27.7,3.7c-6.8,0-13.3-0.7-19.8-1.9c13.4,41.7,52.2,72.1,98.1,72.9
	c-35.9,28.2-81.2,45-130.5,45c-8.5,0-16.8-0.5-25.1-1.5c46.5,29.8,101.7,47.2,161,47.2c193.2,0,298.9-160.1,298.9-298.9
	c0-4.6-0.1-9.1-0.3-13.6C316.1,179.1,333.9,160.6,348,139.5z"/>
</svg>
